<?xml version="1.0" standalone="no"?>
<!DOCTYPE svg PUBLIC "-//W3C//DTD SVG 20010904//EN"
 "http://www.w3.org/TR/2001/REC-SVG-20010904/DTD/svg10.dtd">
<svg version="1.0" xmlns="http://www.w3.org/2000/svg"
 width="512.000000pt" height="512.000000pt" viewBox="0 0 512.000000 512.000000"
 preserveAspectRatio="xMidYMid meet">
<metadata>
Created by potrace 1.14, written by Peter Selinger 2001-2017
</metadata>
<g transform="translate(0.000000,512.000000) scale(0.100000,-0.100000)"
fill="#000000" stroke="none">
<path d="M2355 5013 c-42 -4 -218 -29 -270 -38 -342 -65 -742 -245 -1015 -458
-357 -279 -618 -618 -784 -1020 -69 -167 -132 -384 -152 -527 -2 -19 -6 -44
-9 -55 -27 -132 -27 -535 0 -715 122 -802 627 -1492 1350 -1845 159 -78 204
-96 380 -150 120 -37 122 -38 275 -65 58 -10 121 -21 140 -25 60 -10 441 -14
520 -5 133 16 163 21 265 41 720 142 1367 636 1699 1297 81 162 175 411 192
512 1 8 5 24 7 35 14 53 36 166 42 215 4 30 9 66 11 80 12 68 10 444 -2 546
-36 300 -121 584 -254 844 -30 58 -61 116 -70 130 -9 14 -42 63 -72 111 -121
186 -317 402 -499 548 -352 284 -758 462 -1204 526 -22 4 -51 9 -65 11 -29 6
-427 12 -485 7z"/>
</g>
</svg>
